<?xml version="1.0" encoding="iso-8859-1"?>
<!-- Uploaded to: SVG Repo, www.svgrepo.com, Generator: SVG Repo Mixer Tools -->
<svg height="800px" width="800px" version="1.1" id="Layer_1" xmlns="http://www.w3.org/2000/svg" xmlns:xlink="http://www.w3.org/1999/xlink" 
	 viewBox="0 0 512 512" xml:space="preserve">
<path style="fill:#00BCD4;" d="M499.994,218.577c0,48.071-38.971,87.042-87.042,87.042H99.048
	c-48.071,0-87.042-38.971-87.042-87.042s38.971-87.042,87.042-87.042c11.309,0,22.103,2.161,32.02,6.075
	C139.303,75.96,192.105,28.417,256,28.417S372.697,75.96,380.932,137.61c9.917-3.914,20.71-6.075,32.02-6.075
	C461.023,131.535,499.994,170.506,499.994,218.577z"/>
<polygon style="fill:#ECF0F1;" points="229.028,237.465 229.028,483.584 283.054,483.584 283.054,237.465 316.07,237.465 
	256.041,164.229 196.012,237.465 "/>
<g>
	<path style="fill:#231F20;" d="M412.952,167.553c-6.488,0-12.811,1.198-18.795,3.56c-6.167,2.435-9.193,9.409-6.759,15.576
		c2.436,6.167,9.409,9.192,15.576,6.759c3.165-1.25,6.522-1.883,9.979-1.883c14.894,0,27.013,12.119,27.013,27.013
		c0,6.63,5.376,12.006,12.006,12.006s12.006-5.376,12.006-12.006C463.977,190.442,441.088,167.553,412.952,167.553z"/>
	<path style="fill:#231F20;" d="M256,64.435c-6.63,0-12.006,5.376-12.006,12.006S249.37,88.446,256,88.446
		c32.952,0,61.082,24.553,65.432,57.112c0.807,6.033,5.961,10.417,11.885,10.417c0.529,0,1.066-0.035,1.605-0.107
		c6.573-0.878,11.188-6.919,10.311-13.49C339.295,97.943,300.934,64.435,256,64.435z"/>
	<path style="fill:#231F20;" d="M206.376,79.396c-3.353,2.22-6.588,4.685-9.617,7.33c-4.993,4.363-5.506,11.947-1.143,16.94
		c2.375,2.718,5.702,4.107,9.046,4.107c2.802,0,5.618-0.976,7.894-2.964c2.226-1.944,4.604-3.758,7.07-5.388
		c5.529-3.659,7.046-11.109,3.387-16.638C219.355,77.256,211.907,75.741,206.376,79.396z"/>
	<path style="fill:#231F20;" d="M412.952,119.529c-7.705,0-15.3,0.876-22.704,2.616C375.554,60.972,320.142,16.411,256,16.411
		S136.447,60.972,121.753,122.144c-7.405-1.738-15-2.616-22.705-2.616C44.434,119.528,0,163.962,0,218.576
		s44.434,99.048,99.048,99.048h117.975v165.959c0,6.63,5.376,12.006,12.006,12.006h54.026c6.63,0,12.006-5.376,12.006-12.006
		V317.625h117.891c54.614,0,99.048-44.434,99.048-99.048S467.566,119.529,412.952,119.529z M271.049,237.465v234.113h-30.015
		V237.465c0-6.63-5.376-12.006-12.006-12.006h-7.651l34.664-42.292l34.664,42.292h-7.651
		C276.424,225.459,271.049,230.835,271.049,237.465z M412.952,293.614H295.061v-44.143h21.01c4.64,0,8.866-2.675,10.852-6.87
		c1.985-4.195,1.376-9.158-1.567-12.747l-60.029-73.235c-2.28-2.782-5.688-4.395-9.285-4.395s-7.005,1.614-9.285,4.395
		l-60.029,73.235c-2.941,3.589-3.551,8.552-1.567,12.747c1.986,4.195,6.212,6.87,10.852,6.87h21.01v44.143H99.048
		c-41.376,0-75.036-33.661-75.036-75.036s33.661-75.036,75.036-75.036c9.519,0,18.808,1.762,27.611,5.237
		c3.432,1.353,7.302,1.055,10.487-0.815c3.185-1.871,5.332-5.102,5.822-8.763C150.492,82.888,199.084,40.423,256,40.423
		S361.51,82.888,369.031,139.2c0.489,3.661,2.635,6.893,5.82,8.763c3.186,1.87,7.055,2.168,10.488,0.815
		c8.803-3.476,18.092-5.237,27.611-5.237c41.376,0,75.036,33.661,75.036,75.036S454.328,293.614,412.952,293.614z"/>
</g>
</svg>